<?xml version="1.0" encoding="utf-8"?>
<!-- Generator: Adobe Illustrator 26.0.3, SVG Export Plug-In . SVG Version: 6.00 Build 0)  -->
<svg version="1.1" id="Livello_1" xmlns="http://www.w3.org/2000/svg" xmlns:xlink="http://www.w3.org/1999/xlink" x="0px" y="0px"
	 viewBox="0 0 576 512" style="enable-background:new 0 0 576 512;" xml:space="preserve">
<style type="text/css">
	.st0{fill:#F7F6F1;}
</style>
<path class="st0" d="M82.5,98.9c-0.6-17.2,2-33.8,12.7-48.2c0.3,7.4,1.2,14.5,4.2,21.6c5.9-27.5,19.7-49.3,42.3-65.5
	c-1.9,5.9-3.5,11.8-3,17.7c8.7-7.4,18.8-17.8,44.4-22.7c14.7-2.8,29.7-2,42.1,1c38.5,9.3,61,34.3,69.7,72.3
	c5.3,23.1,0.7,45-8.3,66.4c-5.2,12.4-12,24.4-20.7,35.1c-2-1.9-3.9-3.8-5.8-5.6c-42.8-40.8-26.8-25.2-37.4-37.4
	c-1.1-1.2-1-2.2-0.1-3.6c8.3-13.5,11.8-28.2,10-44c-1.1-9.8-4.3-18.9-11.3-26.2c-14.5-15.3-39.2-15-53.5,0.6
	c-11.4,12.5-14.1,27.4-10.9,43.6c0.2,1.3,0.4,2.7,0,3.9c-3.4,13.7-4.6,27.6-2.5,41.6c0.1,0.5,0.1,1.1,0.1,1.6c0,0.3-0.1,0.5-0.2,1.1
	c-21.8-11-36-28.3-43.2-52.2c-8.3,17.8-11.1,35.5-6.6,54.1C88.9,138.9,83.2,119.8,82.5,98.9L82.5,98.9z M552.1,222.1
	c-11.6-11.6-25-20.4-40.1-26.6c-12.8-5.2-26-7.9-39.9-7.1c-10,0.6-19.6,3.1-29,6.4c-2.5,0.9-5.1,1.6-7.7,2.2
	c-4.9,1.2-7.3-3.1-4.7-6.8c3.2-4.6,3.4-4.2,15-12c0.6-0.4,1.2-0.8,2.2-1.5h-2.5c-0.6,0-1.2,0.2-1.9,0.3
	c-19.3,3.3-30.7,15.5-48.9,29.6c-10.4,8.1-13.8,3.8-12-0.5c1.4-3.5,3.3-6.7,5.1-10c1-1.8,2.3-3.4,3.5-5.1c-0.2-0.2-0.5-0.3-0.7-0.5
	c-27,18.3-46.7,42.4-57.7,73.3c0.3,0.3,0.7,0.6,1,0.9c0.3-0.6,0.5-1.2,0.9-1.7c10.4-12.1,22.8-21.8,36.6-29.8
	c18.2-10.6,37.5-18.3,58.7-20.2c4.3-0.4,8.7-0.1,13.1-0.1c-1.8,0.7-3.5,0.9-5.3,1.1c-18.5,2.4-35.5,9-51.5,18.5
	c-30.2,17.9-54.5,42.2-75.1,70.4c-0.3,0.4-0.4,0.9-0.7,1.3c14.5,5.3,24,17.3,36.1,25.6c0.2-0.1,0.3-0.2,0.4-0.4l1.2-2.7
	c12.2-26.9,27-52.3,46.7-74.5c16.7-18.8,38-25.3,62.5-20c5.9,1.3,11.4,4.4,17.2,6.8c2.3-1.4,5.1-3.2,8-4.7c8.4-4.3,17.4-7,26.7-9
	c14.7-3.1,29.5-4.9,44.5-1.3v-0.5C553.3,223.1,552.6,222.7,552.1,222.1L552.1,222.1z M316.7,397.6c-39.4-33-22.8-19.5-42.7-35.6
	c-0.8,0.9,0-0.2-1.9,3c-11.2,19.1-25.5,35.3-44,47.6c-10.3,6.8-21.5,11.8-34.1,11.8c-21.6,0-38.2-9.5-49.4-27.8
	c-12-19.5-13.3-40.7-8.2-62.6c7.8-33.8,30.1-55.2,38.6-64.3c-18.7-6.2-33,1.7-46.4,13.9c0.8-13.9,4.3-26.2,11.8-37.3
	c-24.3,10.6-45.9,25-64.8,43.9c-0.3-5.8,5.4-43.7,5.6-44.7c0.3-2.7-0.6-5.3-3-7.4c-24.2,24.7-44.5,51.8-56.1,84.6
	c7.4-5.9,14.9-11.4,23.6-16.2c-8.3,22.3-19.6,52.8-7.8,101.1c4.6,19,11.9,36.8,24.1,52.3c2.9,3.7,6.3,6.9,9.5,10.3
	c0.2-0.2,0.4-0.3,0.6-0.5c-1.4-7-2.2-14.1-1.5-21.9c2.2,3.2,3.9,6,5.9,8.6c12.6,16,28.7,27.4,47.2,35.6c25,11.3,51.1,13.3,77.9,8.6
	c54.9-9.7,90.7-48.6,116-98.8C318.6,400,318.2,398.9,316.7,397.6L316.7,397.6z M488.7,351.2c-9.5-3.1-22.2-4.2-28.7-2.9
	c9.9,4,14.1,6.6,18.8,12c12.6,14.4,10.4,34.7-5.4,45.6c-11.7,8.1-24.9,10.5-38.9,9.1c-1.2-0.1-2.3-0.4-3-0.6c2.8-3.7,6-7,8.1-10.8
	c9.4-16.8,5.4-42.1-8.7-56.1c-2.1-2.1-4.6-3.9-7-5.9c-0.3,1.3-0.1,2.1,0.1,2.8c4.2,16.6-8.1,32.4-24.8,31.8
	c-7.6-0.3-13.9-3.8-19.6-8.5c-19.5-16.1-39.1-32.1-58.5-48.3c-5.9-4.9-12.5-8.1-20.1-8.7c-4.6-0.4-9.3-0.6-13.9-0.9
	c-5.9-0.4-8.8-2.8-10.4-8.4c-0.9-3.4-1.5-6.8-2.2-10.2c-1.5-8.1-6.2-13-14.3-14.2c-4.4-0.7-8.9-1-13.3-1.5
	c-13-1.4-19.8-7.4-22.6-20.3c-5,11-1.6,22.4,7.3,29.9c4.5,3.8,9.3,7.3,13.8,11.2c4.6,3.8,7.4,8.7,7.9,14.8c0.4,4.7,0.8,9.5,1.8,14.1
	c2.2,10.6,8.9,18.4,17,25.1c16.5,13.7,33,27.3,49.5,41.1c17.9,15,13.9,32.8,13,56c-0.9,22.9,12.2,42.9,33.5,51.2
	c1,0.4,2,0.6,3.6,1.1c-15.7-18.2-10.1-44.1,0.7-52.3c0.3,2.2,0.4,4.3,0.9,6.4c9.4,44.1,45.4,64.2,85,56.9c16-2.9,30.6-8.9,42.9-19.8
	c2-1.8,3.7-4.1,5.9-6.5c-19.3,4.6-35.8,0.1-50.9-10.6c0.7-0.3,1.3-0.3,1.9-0.3c21.3,1.8,40.6-3.4,57-17.4
	c19.5-16.6,26.6-42.9,17.4-66C524.2,370,508.9,357.8,488.7,351.2L488.7,351.2z M99.4,179.3c-5.3-9.2-13.2-15.6-22.1-21.3
	c13.7-0.5,26.6,0.2,39.6,3.7c-7-12.2-8.5-24.7-5-38.7c5.3,11.9,13.7,20.1,23.6,26.8c19.7,13.2,35.7,19.6,46.7,30.2
	c3.4,3.3,6.3,7.1,9.6,10.9c-0.8-2.1-1.4-4.1-2.2-6c-5-10.6-13-18.6-22.6-25c-1.8-1.2-2.8-2.5-3.4-4.5c-3.3-12.5-3-25.1-0.7-37.6
	c1-5.5,2.8-10.9,4.5-16.3c0.8-2.4,2.3-4.6,4-6.6c0.6,6.9,0,25.5,19.6,46c10.8,11.3,22.4,21.9,33.9,32.7c9,8.5,18.3,16.7,25.5,26.8
	c1.1,1.6,2.2,3.3,3.8,4.7c-5-13-14.2-24.1-24.2-33.8c-9.6-9.3-19.4-18.4-29.2-27.4c-3.3-3-4.6-6.7-5.1-10.9
	c-1.2-10.4,0-20.6,4.3-30.2c0.5-1,1.1-2,1.9-3.3c0.5,4.2,0.6,7.9,1.4,11.6c4.8,23.1,20.4,36.3,49.3,63.5c10,9.4,19.3,19.2,25.6,31.6
	c4.8,9.3,7.3,19,5.7,29.6c-0.1,0.6,0.5,1.7,1.1,2c6.2,2.6,10,6.9,9.7,14.3c7.7-2.6,12.5-8,16.4-14.5c4.2,20.2-9.1,50.3-27.2,58.7
	c0.4-4.5,5-23.4-16.5-27.7c-6.8-1.3-12.8-1.3-22.9-2.1c4.7-9,10.4-20.6,0.5-22.4c-24.9-4.6-52.8,1.9-57.8,4.6
	c8.2,0.4,16.3,1,23.5,3.3c-2,6.5-4,12.7-5.8,18.9c-1.9,6.5,2.1,14.6,9.3,9.6c1.2-0.9,2.3-1.9,3.3-2.7c-3.1,17.9-2.9,15.9-2.8,18.3
	c0.3,10.2,9.5,7.8,15.7,7.3c-2.5,11.8-29.5,27.3-45.4,25.8c7-4.7,12.7-10.3,15.9-17.9c-6.5,0.8-12.9,1.6-19.2,2.4l-0.3-0.9
	c4.7-3.4,8-7.8,10.2-13.1c8.7-21.1-3.6-38-25-39.9c-9.1-0.8-17.8,0.8-25.9,5.5c6.2-15.6,17.2-26.6,32.6-34.5
	c-15.2-4.3-8.9-2.7-24.6-6.3c14.6-9.3,30.2-13.2,46.5-14.6c-5.2-3.2-48.1-3.6-70.2,20.9c7.9,1.4,15.5,2.8,23.2,4.2
	c-23.8,7-44,19.7-62.4,35.6c1.1-4.8,2.7-9.5,3.3-14.3c0.6-4.5,0.8-9.2,0.1-13.6c-1.5-9.4-8.9-15.1-19.7-16.3
	c-7.9-0.9-15.6,0.1-23.3,1.3c-0.9,0.1-1.7,0.3-2.9,0c15.8-14.8,36-21.7,53.1-33.5C102.4,189.7,103.2,186,99.4,179.3L99.4,179.3z
	 M227.8,206.1c3.3,16,12.6,25.5,23.8,24.3C247,219.1,239.5,210.9,227.8,206.1z"/>
</svg>
