<?xml version="1.0" encoding="utf-8"?>
<!-- Generator: Adobe Illustrator 26.0.3, SVG Export Plug-In . SVG Version: 6.00 Build 0)  -->
<svg version="1.1" id="Livello_1" xmlns="http://www.w3.org/2000/svg" xmlns:xlink="http://www.w3.org/1999/xlink" x="0px" y="0px"
	 viewBox="0 0 512 512" style="enable-background:new 0 0 512 512;" xml:space="preserve">
<path d="M256,0C114.6,0,0,114.6,0,256s114.6,256,256,256s256-114.6,256-256S397.4,0,256,0z M382.6,254.6
	c-12.5,12.5-32.8,12.5-45.2,0L288,205.3V384c0,17.7-14.3,32-32,32s-32-14.3-32-32V205.3l-49.4,49.3c-12.5,12.5-32.8,12.5-45.2,0
	s-12.5-32.8,0-45.2l103.1-103.1C241.3,97.4,251.1,96,256,96c4.9,0,14.6,1.4,22.6,9.4l103.1,103.1
	C395.1,221.9,395.1,242.1,382.6,254.6z"/>
</svg>
