<?xml version="1.0" encoding="utf-8"?>
<!-- Generator: Adobe Illustrator 26.0.3, SVG Export Plug-In . SVG Version: 6.00 Build 0)  -->
<svg version="1.1" id="Livello_1" xmlns="http://www.w3.org/2000/svg" xmlns:xlink="http://www.w3.org/1999/xlink" x="0px" y="0px"
	 viewBox="0 0 640 512" style="enable-background:new 0 0 640 512;" xml:space="preserve">
<path d="M128,96h384v256h64V80c0-26.4-21.6-48-48-48H112c-26.4,0-48,21.6-48,48v272h64V96z M624,384H16c-8.8,0-16,7.3-16,16v16
	c0,35.2,28.8,64,64,64h512c35.2,0,64-28.8,64-64v-16C640,391.3,632.8,384,624,384z M365.9,286.2c3.9,3.9,9,5.8,14.1,5.8
	s10.2-1.9,14.1-5.8l48-48c7.8-7.8,7.8-20.5,0-28.3l-48-48c-7.8-7.8-20.5-7.8-28.3,0c-7.8,7.8-7.8,20.5,0,28.3l33.9,33.8l-33.9,33.8
	C358,265.7,358,278.4,365.9,286.2z M274.1,161.9c-7.8-7.8-20.5-7.8-28.3,0l-48,48c-7.8,7.8-7.8,20.5,0,28.3l48,48
	c4,3.9,9.1,5.8,14.2,5.8s10.2-1.9,14.1-5.8c7.8-7.8,7.8-20.5,0-28.3L240.3,224l33.9-33.8C281.1,182.4,281.1,169.7,274.1,161.9z"/>
</svg>
