<?xml version="1.0" encoding="utf-8"?>
<!-- Generator: Adobe Illustrator 26.0.3, SVG Export Plug-In . SVG Version: 6.00 Build 0)  -->
<svg version="1.1" id="Livello_1" xmlns="http://www.w3.org/2000/svg" xmlns:xlink="http://www.w3.org/1999/xlink" x="0px" y="0px"
	 viewBox="0 0 512 512" style="enable-background:new 0 0 512 512;" xml:space="preserve">
<style type="text/css">
	.st0{fill:#FFFFFF;}
</style>
<path class="st0" d="M256,512c141.4,0,256-114.6,256-256S397.4,0,256,0S0,114.6,0,256S114.6,512,256,512z M129.2,265.9
	c2.5-6,8.3-9.9,14.8-9.9h64v-96c0-17.7,14.3-32,32-32h32c17.7,0,32,14.3,32,32v96h64c6.5,0,12.3,3.9,14.8,9.9
	c2.5,6,1.1,12.9-3.5,17.4l-112,112c-6.2,6.2-16.4,6.2-22.6,0l-112-112C128.1,278.7,126.7,271.9,129.2,265.9z"/>
</svg>
