<?xml version="1.0" encoding="utf-8"?>
<!-- Generator: Adobe Illustrator 26.0.3, SVG Export Plug-In . SVG Version: 6.00 Build 0)  -->
<svg version="1.1" id="Livello_1" xmlns="http://www.w3.org/2000/svg" xmlns:xlink="http://www.w3.org/1999/xlink" x="0px" y="0px"
	 viewBox="0 0 512 512" style="enable-background:new 0 0 512 512;" xml:space="preserve">
<style type="text/css">
	.st0{fill:#FFFFFF;}
</style>
<path class="st0" d="M256,0C114.6,0,0,114.6,0,256s114.6,256,256,256s256-114.6,256-256S397.4,0,256,0z M382.6,302.6L279.5,405.7
	c-8.8,8.9-18.6,10.3-23.5,10.3c-4.9,0-14.6-1.4-22.6-9.4l-104-104c-12.5-12.5-12.5-32.8,0-45.2s32.8-12.5,45.2,0l49.4,49.4V128
	c0-17.7,14.3-32,32-32s32,14.3,32,32v178.8l49.4-49.4c12.5-12.5,32.8-12.5,45.2,0S395.1,290.1,382.6,302.6z"/>
</svg>
