<?xml version="1.0" encoding="utf-8"?>
<!-- Generator: Adobe Illustrator 26.0.3, SVG Export Plug-In . SVG Version: 6.00 Build 0)  -->
<svg version="1.1" id="Livello_1" xmlns="http://www.w3.org/2000/svg" xmlns:xlink="http://www.w3.org/1999/xlink" x="0px" y="0px"
	 viewBox="0 0 512 512" style="enable-background:new 0 0 512 512;" xml:space="preserve">
<path d="M256,352c-16.5,0-33.1-5.4-47.2-16.4L0,173.2V400c0,26.5,21.5,48,48,48h416c26.5,0,48-21.5,48-48V173.2L303.2,335.7
	C289.1,346.6,272.5,352,256,352z M16.3,145.3l212.2,165.1c16.2,12.6,38.9,12.6,55.1,0l212.2-165.1c9.4-8,16.2-20.3,16.2-33.3
	c0-26.5-21.5-48-48-48H48C21.5,64,0,85.5,0,112C0,125,6,137.3,16.3,145.3z"/>
</svg>
