<?xml version="1.0" encoding="utf-8"?>
<!-- Generator: Adobe Illustrator 26.0.3, SVG Export Plug-In . SVG Version: 6.00 Build 0)  -->
<svg version="1.1" id="Livello_1" xmlns="http://www.w3.org/2000/svg" xmlns:xlink="http://www.w3.org/1999/xlink" x="0px" y="0px"
	 viewBox="0 0 640 512" style="enable-background:new 0 0 640 512;" xml:space="preserve">
<path d="M414.8,40.8l-128,448c-4.9,17-22.6,26.8-39.6,22c-17-4.9-26.8-22.6-22-39.6l128-448c4.9-17,22.6-26.8,39.6-22
	C409.8,6.1,419.6,23.8,414.8,40.8L414.8,40.8z M518.6,121.4l112,112c12.5,12.5,12.5,32.7,0,45.2l-112,112
	c-12.5,12.5-32.7,12.5-45.2,0s-12.5-32.7,0-45.2l89.3-89.4l-89.3-89.4c-12.5-12.5-12.5-32.7,0-45.2S506.1,108.9,518.6,121.4
	L518.6,121.4z M166.6,166.6L77.2,256l89.4,89.4c12.5,12.5,12.5,32.7,0,45.2s-32.7,12.5-45.2,0l-112-112c-12.5-12.5-12.5-32.7,0-45.2
	l112-112c12.5-12.5,32.7-12.5,45.2,0S179.1,154.1,166.6,166.6L166.6,166.6z"/>
</svg>
