<?xml version="1.0" encoding="utf-8"?>
<!-- Generator: Adobe Illustrator 26.0.3, SVG Export Plug-In . SVG Version: 6.00 Build 0)  -->
<svg version="1.1" id="Livello_1" xmlns="http://www.w3.org/2000/svg" xmlns:xlink="http://www.w3.org/1999/xlink" x="0px" y="0px"
	 viewBox="0 0 512 512" style="enable-background:new 0 0 512 512;" xml:space="preserve">
<style type="text/css">
	.st0{fill:#FFFFFF;}
</style>
<path class="st0" d="M0,190.9v-5.8c0-69.9,50.5-129.5,119.4-141c44.7-7.6,92,7.3,124.6,39.9l12,12l11.1-12
	c33.5-32.6,79.9-47.5,125.5-39.9c68.9,11.5,119.4,71.1,119.4,141v5.8c0,41.5-17.2,81.2-47.6,109.5L283.7,469.1
	c-7.5,7-17.4,10.9-27.7,10.9c-10.3,0-20.2-3.9-27.7-10.9L47.6,300.4C17.2,272.1,0,232.4,0,190.9L0,190.9z"/>
</svg>
