<?xml version="1.0" encoding="utf-8"?>
<!-- Generator: Adobe Illustrator 26.0.3, SVG Export Plug-In . SVG Version: 6.00 Build 0)  -->
<svg version="1.1" id="Livello_1" xmlns="http://www.w3.org/2000/svg" xmlns:xlink="http://www.w3.org/1999/xlink" x="0px" y="0px"
	 viewBox="0 0 192 512" style="enable-background:new 0 0 192 512;" xml:space="preserve">
<style type="text/css">
	.st0{fill:#F7F7F7;}
</style>
<path class="st0" d="M160,448h-32V224c0-17.7-14.3-32-32-32H32c-17.7,0-32,14.3-32,32s14.3,31.1,32,31.1h32v192H32
	c-17.7,0-32,14.3-32,32s14.3,32,32,32h128c17.7,0,32-14.3,32-32S177.7,448,160,448z M96,128c26.5,0,48-21.5,48-48s-21.5-48-48-48
	S48,53.5,48,80S69.5,128,96,128z"/>
</svg>
