<?xml version="1.0" encoding="utf-8"?>
<!-- Generator: Adobe Illustrator 26.0.3, SVG Export Plug-In . SVG Version: 6.00 Build 0)  -->
<svg version="1.1" id="Livello_1" xmlns="http://www.w3.org/2000/svg" xmlns:xlink="http://www.w3.org/1999/xlink" x="0px" y="0px"
	 viewBox="0 0 576 512" style="enable-background:new 0 0 576 512;" xml:space="preserve">
<style type="text/css">
	.st0{fill:#F7F7F7;}
</style>
<path class="st0" d="M512,32H64C28.6,32,0,60.7,0,96v320c0,35.4,28.6,64,64,64h448c35.3,0,64-28.6,64-64V96
	C576,60.7,547.3,32,512,32z M176,128c35.4,0,64,28.6,64,64s-28.6,64-64,64s-64-28.6-64-64S140.7,128,176,128z M272,384H80
	c-8.8,0-16-7.2-16-16c0-44.2,35.8-80,80-80h64c44.2,0,80,35.8,80,80C288,376.8,280.8,384,272,384z M496,320H368c-8.8,0-16-7.2-16-16
	s7.2-16,16-16h128c8.8,0,16,7.2,16,16S504.8,320,496,320z M496,256H368c-8.8,0-16-7.2-16-16s7.2-16,16-16h128c8.8,0,16,7.2,16,16
	S504.8,256,496,256z M496,192H368c-8.8,0-16-7.2-16-16s7.2-16,16-16h128c8.8,0,16,7.2,16,16S504.8,192,496,192z"/>
</svg>
