<?xml version="1.0" encoding="utf-8"?>
<!-- Generator: Adobe Illustrator 26.0.3, SVG Export Plug-In . SVG Version: 6.00 Build 0)  -->
<svg version="1.1" id="Livello_1" xmlns="http://www.w3.org/2000/svg" xmlns:xlink="http://www.w3.org/1999/xlink" x="0px" y="0px"
	 viewBox="0 0 512 512" style="enable-background:new 0 0 512 512;" xml:space="preserve">
<style type="text/css">
	.st0{fill:#F7F7F7;}
</style>
<path class="st0" d="M421.7,220.3L188.5,453.4l-33.9-33.9l3.5-3.5H112c-8.8,0-16-7.2-16-16v-46.1l-3.5,3.5
	c-4.7,4.8-8.2,10.6-10.1,17l-23,78.2l78.2-23c5.5-1.9,12.2-5.4,17-10.1l33.9,33.9c-10.4,10.4-23.3,18.1-37.4,22.2L30.8,511
	c-8.4,2.5-17.5,0.2-23.7-6.9c-6.2-5.3-8.5-14.4-6.1-22.9l35.4-120.3c4.2-14.1,11.8-27,22.2-37.4L291.7,90.3L421.7,220.3z
	 M492.7,58.8c25,25,25,65.6,0,90.6l-48.4,48.4l-130-130l48.4-48.4c25-25,65.6-25,90.6,0L492.7,58.8z"/>
</svg>
