<?xml version="1.0" encoding="utf-8"?>
<!-- Generator: Adobe Illustrator 26.0.3, SVG Export Plug-In . SVG Version: 6.00 Build 0)  -->
<svg version="1.1" id="Livello_1" xmlns="http://www.w3.org/2000/svg" xmlns:xlink="http://www.w3.org/1999/xlink" x="0px" y="0px"
	 viewBox="0 0 512 512" style="enable-background:new 0 0 512 512;" xml:space="preserve">
<style type="text/css">
	.st0{fill:#F7F7F7;}
</style>
<path class="st0" d="M256,0C114.6,0,0,114.6,0,256s114.6,256,256,256s256-114.6,256-256S397.4,0,256,0z M382.8,246.1
	c-2.5,6-8.3,9.9-14.8,9.9h-64v96c0,17.7-14.3,32-32,32h-32c-17.7,0-32-14.3-32-32v-96h-64c-6.5,0-12.3-3.9-14.8-9.9
	s-1.1-12.8,3.5-17.4l112-112c6.2-6.2,16.4-6.2,22.6,0l112,112C383.9,233.3,385.3,240.1,382.8,246.1z"/>
</svg>
